<?xml version="1.0" standalone="no"?>
<!DOCTYPE svg PUBLIC "-//W3C//DTD SVG 20010904//EN"
 "http://www.w3.org/TR/2001/REC-SVG-20010904/DTD/svg10.dtd">
<svg version="1.0" xmlns="http://www.w3.org/2000/svg"
 width="1254.000000pt" height="1254.000000pt" viewBox="0 0 1254.000000 1254.000000"
 preserveAspectRatio="xMidYMid meet">

<g transform="translate(0.000000,1254.000000) scale(0.100000,-0.100000)"
fill="#000000" stroke="none">
<path d="M0 6270 l0 -6270 2783 2 c1530 1 2706 4 2612 5 -296 4 -1163 32
-1345 44 -283 17 -670 49 -735 60 -118 20 -154 43 -106 68 107 58 1116 114
2271 126 278 3 551 8 608 10 243 12 2113 -29 2487 -55 77 -5 187 -12 245 -15
125 -8 394 -39 467 -55 100 -22 78 -52 -52 -73 -296 -49 -931 -84 -1930 -106
-176 -4 930 -8 2458 -9 l2777 -2 0 6270 0 6270 -6270 0 -6270 0 0 -6270z
m6377 5913 c-3 -10 -5 -4 -5 12 0 17 2 24 5 18 2 -7 2 -21 0 -30z m264 -130
c13 -16 12 -17 -3 -4 -10 7 -18 15 -18 17 0 8 8 3 21 -13z m1249 -73 c6 -11 8
-20 6 -20 -3 0 -10 9 -16 20 -6 11 -8 20 -6 20 3 0 10 -9 16 -20z m-870 -20
c22 -11 40 -23 40 -25 0 -5 -79 32 -89 41 -11 10 14 2 49 -16z m215 -170 c10
-11 16 -20 13 -20 -3 0 -13 9 -23 20 -10 11 -16 20 -13 20 3 0 13 -9 23 -20z
m-126 -133 c8 -10 7 -14 -2 -14 -8 0 -14 6 -14 14 0 7 1 13 2 13 2 0 8 -6 14
-13z m-2286 -154 c-13 -2 -33 -2 -45 0 -13 2 -3 4 22 4 25 0 35 -2 23 -4z
m3255 0 c-10 -2 -28 -2 -40 0 -13 2 -5 4 17 4 22 1 32 -1 23 -4z m-3581 -125
c-3 -8 -6 -5 -6 6 -1 11 2 17 5 13 3 -3 4 -12 1 -19z m1644 -55 c13 -16 12
-17 -3 -4 -17 13 -22 21 -14 21 2 0 10 -8 17 -17z m2227 -117 c10 -12 0 -8
-23 9 -56 40 -66 51 -27 29 18 -10 41 -28 50 -38z m-2123 24 c10 -11 16 -20
13 -20 -3 0 -13 9 -23 20 -10 11 -16 20 -13 20 3 0 13 -9 23 -20z m-1099 -6
c18 -14 18 -14 -6 -3 -31 14 -36 19 -24 19 6 0 19 -7 30 -16z m3911 -60 c-3
-3 -12 -4 -19 -1 -8 3 -5 6 6 6 11 1 17 -2 13 -5z m-3742 -66 c22 -23 31 -35
19 -25 -11 9 -24 15 -27 12 -4 -3 -5 -2 -2 2 3 3 -5 17 -17 30 -12 13 -19 23
-17 23 3 0 23 -19 44 -42z m226 15 c13 -16 12 -17 -3 -4 -17 13 -22 21 -14 21
2 0 10 -8 17 -17z m-1814 -33 c1 -11 0 -20 -1 -20 -2 0 -13 9 -26 20 l-23 20
24 0 c18 0 25 -6 26 -20z m5588 -50 c10 -11 16 -20 13 -20 -3 0 -13 9 -23 20
-10 11 -16 20 -13 20 3 0 13 -9 23 -20z m-841 -15 c3 -8 1 -15 -4 -15 -6 0
-10 7 -10 15 0 8 2 15 4 15 2 0 6 -7 10 -15z m-14 -65 c-20 -13 -33 -13 -25 0
3 6 14 10 23 10 15 0 15 -2 2 -10z m1015 -92 c16 -24 22 -38 14 -31 -15 12
-53 73 -46 73 2 0 17 -19 32 -42z m-1128 -25 c-3 -10 -5 -4 -5 12 0 17 2 24 5
18 2 -7 2 -21 0 -30z m-1450 11 c-3 -3 -12 -4 -19 -1 -8 3 -5 6 6 6 11 1 17
-2 13 -5z m508 -114 c10 -11 16 -20 13 -20 -3 0 -13 9 -23 20 -10 11 -16 20
-13 20 3 0 13 -9 23 -20z m-3132 -17 c-7 -2 -19 -2 -25 0 -7 3 -2 5 12 5 14 0
19 -2 13 -5z m4642 -63 c10 -11 16 -20 13 -20 -3 0 -13 9 -23 20 -10 11 -16
20 -13 20 3 0 13 -9 23 -20z m-2642 -55 c-3 -9 -8 -14 -10 -11 -3 3 -2 9 2 15
9 16 15 13 8 -4z m2936 -85 c0 -10 -3 -8 -9 5 -12 27 -12 43 0 25 5 -8 9 -22
9 -30z m221 -455 c19 -19 32 -35 29 -35 -3 0 -20 16 -39 35 -19 19 -32 35 -29
35 3 0 20 -16 39 -35z m-2260 -92 c-8 -3 -24 -13 -35 -22 -20 -16 -20 -16 -1
7 11 12 26 22 35 21 14 0 14 -1 1 -6z m2130 -38 c19 -19 32 -35 29 -35 -3 0
-20 16 -39 35 -19 19 -32 35 -29 35 3 0 20 -16 39 -35z m-6079 -12 c13 -16 12
-17 -3 -4 -10 7 -18 15 -18 17 0 8 8 3 21 -13z m40 -30 c13 -16 12 -17 -3 -4
-10 7 -18 15 -18 17 0 8 8 3 21 -13z m4306 -9 c-3 -3 -12 -4 -19 -1 -8 3 -5 6
6 6 11 1 17 -2 13 -5z m-4472 -84 c10 -11 16 -20 13 -20 -3 0 -13 9 -23 20
-10 11 -16 20 -13 20 3 0 13 -9 23 -20z m6312 -62 c-3 -8 -6 -5 -6 6 -1 11 2
17 5 13 3 -3 4 -12 1 -19z m-5557 -242 c0 -8 3 -23 6 -33 3 -10 -2 -7 -10 7
-18 30 -20 40 -6 40 6 0 10 -6 10 -14z m1623 7 c-7 -2 -21 -2 -30 0 -10 3 -4
5 12 5 17 0 24 -2 18 -5z m1690 -10 c-7 -2 -19 -2 -25 0 -7 3 -2 5 12 5 14 0
19 -2 13 -5z m-1015 -190 c-10 -2 -28 -2 -40 0 -13 2 -5 4 17 4 22 1 32 -1 23
-4z m289 1 c-3 -3 -12 -4 -19 -1 -8 3 -5 6 6 6 11 1 17 -2 13 -5z m2753 -529
c13 -14 21 -25 18 -25 -2 0 -15 11 -28 25 -13 14 -21 25 -18 25 2 0 15 -11 28
-25z m-5580 -69 c0 -2 -8 -10 -17 -17 -16 -13 -17 -12 -4 4 13 16 21 21 21 13z
m-386 -61 c-9 -14 -18 -25 -21 -25 -5 0 5 18 20 38 17 22 18 13 1 -13z m5791
-37 c33 -35 42 -46 19 -25 -22 20 -43 35 -47 32 -4 -3 -5 -2 -2 2 3 3 -5 17
-17 30 -12 13 -19 23 -17 23 3 0 31 -28 64 -62z m-6100 -58 c10 -11 16 -20 13
-20 -3 0 -13 9 -23 20 -10 11 -16 20 -13 20 3 0 13 -9 23 -20z m6205 -70 c6
-11 8 -20 6 -20 -3 0 -10 9 -16 20 -6 11 -8 20 -6 20 3 0 10 -9 16 -20z m385
-30 c-3 -5 -12 -10 -18 -10 -7 0 -6 4 3 10 19 12 23 12 15 0z m-2923 -40 c656
-38 1128 -172 1281 -363 60 -74 45 -195 -33 -260 -16 -14 -30 -31 -30 -37 0
-7 87 -193 194 -414 107 -220 284 -590 394 -821 110 -231 256 -537 324 -680
69 -143 144 -300 168 -348 23 -49 39 -91 36 -95 -4 -3 -19 1 -34 10 -19 11
-52 64 -110 174 -113 218 -737 1451 -1010 1999 -124 248 -227 452 -229 454 -2
3 -32 -7 -66 -21 -173 -72 -500 -134 -830 -159 -207 -15 -751 -6 -942 16 -275
32 -498 79 -659 140 -38 14 -70 24 -71 23 -1 -2 -116 -230 -255 -508 -139
-278 -274 -545 -300 -595 -26 -49 -152 -297 -280 -550 -129 -253 -250 -482
-270 -510 -45 -60 -141 -245 -144 -279 -2 -13 -10 -33 -18 -45 -15 -21 -15
-21 -32 -2 -17 18 -13 28 89 238 59 120 156 319 215 443 59 124 154 320 210
435 96 196 144 296 250 520 23 50 96 200 161 333 l119 244 -26 21 c-15 11 -40
41 -55 66 -77 121 -5 250 193 348 246 121 646 202 1128 226 139 8 481 6 632
-3z m-3255 -187 c-2 -16 -4 -5 -4 22 0 28 2 40 4 28 2 -13 2 -35 0 -50z m128
-293 c10 -11 16 -20 13 -20 -3 0 -13 9 -23 20 -10 11 -16 20 -13 20 3 0 13 -9
23 -20z m55 -55 c13 -14 21 -25 18 -25 -2 0 -15 11 -28 25 -13 14 -21 25 -18
25 2 0 15 -11 28 -25z m580 -305 c8 -5 11 -10 5 -10 -5 0 -17 5 -25 10 -8 5
-10 10 -5 10 6 0 17 -5 25 -10z m1408 -495 c2 -17 -4 -70 -12 -120 -8 -49 -12
-93 -10 -96 2 -4 41 -12 86 -18 155 -22 155 -22 143 -112 -10 -69 -22 -73
-145 -54 -55 9 -104 14 -109 11 -5 -3 -15 -52 -22 -108 -15 -123 -27 -139 -91
-131 -86 11 -91 26 -64 188 8 44 13 81 12 82 -1 1 -49 10 -106 19 -58 9 -111
23 -119 30 -10 9 -12 26 -7 68 11 82 22 87 149 66 56 -10 105 -16 108 -14 3 2
11 43 18 91 17 127 19 133 43 142 12 4 44 3 73 -3 45 -10 50 -14 53 -41z
m2099 -135 c16 -32 17 -105 0 -118 -7 -6 -43 -16 -80 -22 -46 -8 -67 -17 -67
-26 0 -50 54 -363 65 -381 28 -42 81 -38 105 7 20 38 79 21 100 -29 45 -109
-136 -214 -259 -151 -82 41 -104 95 -140 346 -21 147 -30 189 -41 189 -8 0
-43 -4 -77 -9 -75 -10 -72 7 -43 -211 32 -242 26 -315 -31 -380 -36 -40 -87
-59 -141 -52 -52 7 -78 31 -78 74 0 47 16 73 45 73 14 0 32 11 44 26 26 33 26
74 3 279 l-17 150 -30 -4 c-43 -5 -65 -19 -65 -41 0 -43 -77 -62 -117 -28 -19
16 -26 73 -13 112 8 26 76 104 93 106 1 1 155 27 342 60 187 32 351 58 365 57
15 -1 29 -12 37 -27z m-2671 -961 c384 -117 393 -120 399 -140 9 -28 -22 -127
-44 -138 -14 -8 -90 12 -312 80 -162 49 -300 96 -308 104 -26 26 21 155 57
155 5 0 98 -27 208 -61z m1240 -334 c32 -7 35 -24 23 -146 -6 -60 -9 -112 -7
-114 2 -3 47 -9 99 -15 51 -6 99 -16 106 -23 14 -15 3 -161 -14 -178 -7 -7
-42 -8 -112 -2 -55 5 -101 9 -101 8 -6 -4 -37 -352 -33 -367 14 -57 84 -88
157 -69 28 7 44 7 53 -1 17 -14 18 -158 0 -182 -27 -36 -157 -47 -247 -20
-105 31 -158 87 -186 194 -14 56 -14 75 6 261 12 111 19 203 17 205 -2 2 -32
8 -66 12 -35 5 -66 14 -70 21 -9 15 8 162 21 178 7 8 29 10 73 6 l62 -6 6 44
c4 24 9 76 13 114 3 39 11 76 17 83 8 10 30 12 86 7 42 -3 86 -8 97 -10z
m2121 -90 c33 -23 49 -86 33 -125 -25 -60 -120 -81 -165 -36 -68 68 -27 176
67 176 24 0 53 -7 65 -15z m-4713 -162 c4 -10 12 -94 18 -188 6 -93 13 -172
14 -174 2 -2 17 9 35 23 176 148 439 87 544 -127 67 -136 70 -283 10 -414 -41
-90 -86 -138 -171 -179 -67 -34 -83 -38 -157 -38 -79 -1 -116 10 -208 61 -3 2
-4 -9 -1 -25 2 -16 -2 -33 -10 -39 -20 -16 -177 -32 -192 -19 -9 7 -18 84 -30
231 -9 121 -21 261 -26 310 -5 50 -17 195 -26 323 -12 179 -13 236 -4 247 11
13 49 19 151 23 36 2 48 -2 53 -15z m5015 -51 c15 -27 23 -115 13 -130 -10
-14 -27 -19 -359 -87 -122 -26 -235 -45 -250 -43 -25 3 -29 9 -40 58 -21 89
-18 92 154 128 81 18 209 45 283 61 163 35 186 37 199 13z m-206 -283 c32 -14
51 -51 51 -96 0 -28 -7 -42 -33 -65 -30 -27 -39 -30 -80 -25 -89 10 -121 108
-56 173 27 26 77 32 118 13z m-1148 -117 c85 -21 86 -25 51 -162 -14 -52 -22
-98 -18 -101 4 -4 47 -14 96 -24 115 -24 118 -28 100 -107 -18 -82 -30 -108
-49 -108 -8 0 -56 9 -106 20 -51 12 -93 19 -95 18 -1 -2 -21 -79 -44 -171 -45
-182 -45 -209 -4 -248 20 -19 39 -24 94 -27 47 -3 70 -9 74 -18 3 -8 0 -49 -6
-90 -15 -97 -30 -109 -126 -101 -83 7 -173 39 -218 80 -94 82 -102 180 -36
451 23 93 39 173 36 177 -2 4 -24 11 -49 14 -78 12 -82 19 -60 115 11 49 25
84 34 88 8 3 39 0 70 -6 30 -7 59 -8 63 -4 4 4 17 52 29 107 22 104 37 128 73
120 12 -3 53 -13 91 -23z m-2099 -117 c109 -32 201 -120 245 -232 25 -67 38
-215 20 -236 -8 -10 -62 -16 -208 -21 -269 -9 -353 -16 -353 -31 0 -21 45 -79
79 -102 81 -55 183 -54 276 3 32 19 63 34 69 34 14 0 106 -118 106 -136 0 -21
-81 -83 -136 -104 -324 -121 -635 78 -634 404 1 88 13 142 48 214 48 98 137
173 247 208 55 17 181 17 241 -1z m-1871 -147 c-4 -13 -30 -72 -58 -132 -28
-61 -51 -126 -53 -145 -3 -53 -3 -53 -16 -45 -7 4 -8 3 -4 -5 7 -11 -109 -276
-125 -287 -5 -3 -4 7 1 21 16 41 11 43 -9 5 -11 -19 -15 -38 -10 -41 8 -5
-1465 -2969 -1475 -2969 -3 0 38 89 91 198 146 302 328 682 458 957 24 50 91
188 149 309 58 120 106 219 106 221 0 2 59 123 130 270 72 147 130 268 130
270 0 5 197 409 405 830 114 231 223 453 242 493 34 71 51 93 38 50z m6134
-818 c95 -24 107 -36 93 -89 -5 -23 -9 -41 -7 -41 2 0 27 12 56 28 74 38 183
39 248 2 24 -14 48 -32 54 -40 11 -19 -38 -165 -65 -192 -18 -18 -20 -18 -57
1 -102 53 -181 48 -251 -15 -51 -46 -68 -87 -125 -299 -26 -99 -54 -186 -61
-194 -11 -13 -26 -11 -110 10 -53 13 -99 30 -101 37 -6 13 7 65 87 362 27 102
64 239 81 305 17 66 35 125 41 132 14 17 29 16 117 -7z m-1273 -478 c-5 -4
-66 26 -66 33 0 3 16 -3 35 -12 19 -9 33 -18 31 -21z m2154 -762 c54 -113 137
-286 185 -385 48 -99 129 -268 180 -375 51 -107 141 -294 199 -414 58 -121
105 -221 102 -223 -2 -2 -234 456 -516 1018 -480 957 -511 1023 -500 1048 12
25 18 15 132 -219 66 -135 164 -337 218 -450z m-4641 643 c112 -86 54 -263
-87 -263 -104 0 -173 91 -144 189 31 100 147 138 231 74z m1126 -215 c93 -13
105 -20 105 -60 0 -16 3 -28 8 -26 107 55 178 68 263 48 70 -16 143 -56 180
-97 91 -104 99 -198 44 -555 -21 -139 -43 -249 -50 -257 -11 -12 -29 -12 -109
-1 -58 7 -100 18 -108 27 -9 11 -5 57 22 216 53 326 51 377 -22 430 -38 29
-125 34 -172 12 -80 -38 -93 -74 -142 -405 -15 -102 -33 -191 -39 -198 -9 -10
-30 -11 -106 -1 -52 6 -100 17 -107 24 -11 10 -6 56 27 261 22 137 49 317 61
399 23 160 32 195 52 195 7 0 49 -5 93 -12z m-1097 -210 c6 -8 15 -138 21
-309 14 -389 14 -512 -1 -527 -17 -17 -202 -16 -216 1 -5 6 -10 59 -11 117 -1
58 -6 240 -12 405 -10 282 -10 300 7 312 24 18 197 18 212 1z m-1610 -980 c5
-7 15 -37 21 -67 10 -47 9 -57 -4 -70 -9 -10 -86 -30 -187 -51 l-172 -35 -24
-125 c-50 -271 -123 -637 -133 -667 -9 -27 -18 -35 -52 -44 -26 -7 -52 -8 -67
-3 -16 6 -71 70 -151 177 -69 92 -129 171 -135 177 -6 6 -31 4 -68 -6 -80 -21
-100 -11 -116 56 -11 45 -10 53 5 70 17 18 170 60 221 60 19 0 45 -29 136
-152 l113 -152 7 40 c7 40 86 449 115 602 17 87 29 109 66 116 12 3 103 23
202 44 209 46 209 46 223 30z m4689 -364 c-3 -3 -12 -4 -19 -1 -8 3 -5 6 6 6
11 1 17 -2 13 -5z m-1085 -283 c43 -63 82 -119 87 -124 5 -5 56 23 129 72 78
53 125 79 136 75 24 -9 88 -101 84 -121 -2 -9 -55 -52 -118 -95 -63 -43 -117
-83 -119 -89 -1 -5 34 -66 79 -134 57 -86 80 -129 76 -142 -9 -27 -94 -85
-120 -81 -18 3 -110 126 -185 247 -7 11 -34 -4 -128 -68 -65 -44 -129 -81
-140 -81 -30 0 -85 81 -81 117 2 21 26 42 118 105 63 43 116 82 118 87 1 4
-31 59 -73 122 -41 63 -75 124 -75 136 0 16 15 33 53 58 28 19 59 34 67 33 8
-2 50 -54 92 -117z m-1700 -18 c21 -25 33 -138 16 -150 -7 -4 -183 -40 -392
-79 -436 -81 -410 -82 -421 22 -5 46 -3 64 7 70 9 6 675 139 769 153 3 1 13
-7 21 -16z m66 -335 c13 -17 25 -130 14 -145 -4 -7 -116 -33 -253 -58 -134
-24 -304 -55 -377 -69 -74 -14 -140 -22 -148 -19 -28 11 -47 144 -22 159 14 9
709 141 749 143 15 0 31 -5 37 -11z"/>
<path d="M3759 4905 c-163 -51 -185 -305 -35 -396 37 -23 131 -26 180 -5 81
34 128 144 107 247 -26 124 -135 190 -252 154z"/>
<path d="M4935 4618 c-39 -21 -85 -72 -96 -105 -6 -19 -9 -36 -7 -37 1 -2 81
-1 176 2 167 4 172 5 172 26 0 32 -36 84 -72 106 -37 22 -139 27 -173 8z"/>
<path d="M3085 4250 c-4 -11 -11 -17 -17 -14 -7 5 -8 2 -3 -6 6 -10 11 -9 22
5 13 19 17 35 9 35 -3 0 -8 -9 -11 -20z"/>
</g>
</svg>
